PathFileType	4	(X/Y/Z)	C:/Users/opensim2020/Desktop/walking_exp_matlab/subject01_walking14_straight_03.trc																																																																																																																												
DataRate	CameraRate	NumFrames	NumMarkers	Units	OrigDataRate	OrigDataStartFrame	OrigNumFrames																																																																																																																								
100	100	7	42	mm	100	1643	121																																																																																																																								
Frame#	Time	LFHD			RFHD			LBHD			RBHD			C7			T10			CLAV			STRN			RBAK			LSHO			LUPA			LELB			LFRM			LWRA			LWRB			LFIN			RSHO			RUPA			RELB			RFRM			RWRA			RWRB			RFIN			LASI			RASI			LPSI			RPSI			LTHI			LKNE			LTIB			LANK			LHEE			LTOE			RTHI			RKNE			RTIB			RANK			RHEE			RTOE			*39			*40			*41		
		X1	Y1	Z1	X2	Y2	Z2	X3	Y3	Z3	X4	Y4	Z4	X5	Y5	Z5	X6	Y6	Z6	X7	Y7	Z7	X8	Y8	Z8	X9	Y9	Z9	X10	Y10	Z10	X11	Y11	Z11	X12	Y12	Z12	X13	Y13	Z13	X14	Y14	Z14	X15	Y15	Z15	X16	Y16	Z16	X17	Y17	Z17	X18	Y18	Z18	X19	Y19	Z19	X20	Y20	Z20	X21	Y21	Z21	X22	Y22	Z22	X23	Y23	Z23	X24	Y24	Z24	X25	Y25	Z25	X26	Y26	Z26	X27	Y27	Z27	X28	Y28	Z28	X29	Y29	Z29	X30	Y30	Z30	X31	Y31	Z31	X32	Y32	Z32	X33	Y33	Z33	X34	Y34	Z34	X35	Y35	Z35	X36	Y36	Z36	X37	Y37	Z37	X38	Y38	Z38	X39	Y39	Z39	X40	Y40	Z40	X41	Y41	Z41	X42	Y42	Z42
																																																																																																																															
46	0.45	-125.40852	1645.71277	1440.23535	-75.57635	1656.68164	1541.6167	-231.7312	1603.23254	1489.34985	-181.22614	1613.25012	1597.5835	-260.06046	1416.35339	1530.38525	-305.96884	1122.36816	1541.32654	-117.0798	1342.78381	1510.01135	-81.72269	1187.78784	1503.92908	-311.22427	1228.42505	1617.61108	-197.83693	1375.21399	1359.50513	-268.72238	1198.77759	1282.92285	-315.61157	1060.3811	1290.02417	-324.07468	949.56482	1261.40112	-294.40292	810.92377	1263.05505	-350.90158	830.07782	1254.15271	-341.42831	748.57886	1233.96667	-160.11519	1388.16211	1665.62451	-211.67801	1199.18994	1782.427	-199.78918	1070.40088	1795.58655	-111.20399	979.5528	1805.42944	13.90098	932.55652	1759.75635	-14.8759	904.55817	1800.24744	60.9046	871.14331	1795.29236	-139.46906	922.85162	1415.07874	-127.14949	915.54822	1632.2533	-321.79852	924.76312	1473.48657	-313.84778	934.25549	1615.79529	-93.6452	603.32605	1332.52637	-47.42115	480.71393	1353.89429	-36.08651	296.35092	1340.48706	25.45945	79.21411	1381.90784	1.77697	36.77049	1441.8479	169.84331	87.83472	1356.58765	-247.34482	596.53003	1699.48523	-282.85175	438.84592	1683.21167	-388.45862	295.98541	1698.53772	-479.35858	106.21574	1664.24548	-539.02545	82.97954	1617.17554	-356.77795	33.03818	1665.67969	-93.43592	1689.67834	1523.37988	1973.18896	1023.48999	-3101.95605	2012.55579	1022.19208	-3140.64722
47	0.46	-112.76339	1644.69873	1436.97546	-62.93168	1655.8501	1538.39148	-218.85555	1602.3197	1486.24243	-168.6393	1612.59583	1594.40222	-247.47435	1415.33911	1527.28601	-292.79263	1121.31836	1539.34644	-104.30182	1341.98474	1507.43933	-68.74177	1187.02759	1501.77271	-298.58377	1227.65955	1614.91882	-184.82788	1373.72754	1356.66968	-255.69337	1196.9292	1280.64514	-302.98096	1058.87036	1288.53162	-312.36859	948.13287	1260.29883	-283.92459	809.18414	1262.23718	-340.27036	828.90784	1253.4364	-331.85297	747.23871	1233.50159	-147.81476	1387.74048	1662.87854	-199.6461	1199.07288	1780.10522	-187.61736	1070.33459	1793.82764	-98.58729	979.94025	1803.52332	26.60725	933.73651	1757.33826	-1.71979	905.64929	1798.14868	74.33044	872.66064	1792.6217	-125.40728	921.66486	1414.17688	-113.89973	914.77399	1631.30383	-308.13263	923.8689	1471.50012	-300.49036	933.37622	1613.74438	-79.42139	603.24365	1332.17944	-34.03144	480.4537	1353.47876	-22.16216	295.21301	1339.53711	40.19672	78.30993	1381.09973	16.2474	35.30006	1440.78516	184.77443	87.67287	1357.26868	-235.30853	596.20233	1699.21863	-271.81149	438.3667	1683.38733	-380.86392	298.19067	1699.08765	-476.33957	110.45786	1665.49133	-536.72632	89.20224	1618.51221	-356.33246	33.11423	1665.90576	-80.76907	1688.79211	1520.08911	1973.15894	1023.43439	-3101.94238	2012.50183	1022.05957	-3140.73364
48	0.47	-100.08821	1643.77637	1433.58154	-50.33446	1655.0675	1535.09082	-206.46489	1601.65393	1482.8197	-156.09636	1611.94482	1591.02014	-234.80594	1414.40503	1524.12512	-279.50919	1120.27856	1537.1875	-91.57309	1341.18945	1504.69983	-55.61084	1186.349	1499.47363	-285.64914	1226.66406	1612.00305	-171.80197	1372.28259	1353.66016	-242.47406	1195.07019	1278.18408	-290.15085	1057.29785	1286.83105	-300.21469	946.68243	1259.01697	-272.6366	807.59357	1261.33325	-328.83902	827.58612	1252.52271	-321.06113	745.64392	1232.98169	-135.47452	1387.34729	1659.94995	-187.94734	1198.95337	1777.54736	-175.81708	1070.33276	1791.86365	-86.35267	980.33459	1801.61255	38.83786	934.42596	1754.88904	10.87365	906.39673	1796.08044	87.14736	873.65173	1790.02966	-111.09374	920.6463	1413.08362	-100.44553	914.02435	1630.25793	-294.14893	922.95428	1469.45752	-287.01199	932.48407	1611.73511	-63.82336	603.61865	1332.71436	-20.10267	480.23425	1353.2251	-9.231	293.7312	1338.83032	51.97561	76.52768	1380.9032	26.865	34.23888	1439.9707	196.86458	85.43941	1358.40613	-222.63509	595.95221	1698.81946	-260.08499	437.71808	1683.47302	-372.63556	300.43262	1699.48926	-472.88168	114.95277	1666.71887	-533.65796	95.91855	1620.07239	-355.87265	32.97544	1666.03076	-68.14151	1687.99585	1516.71594	1973.1261	1023.7088	-3101.95239	2012.50513	1022.13409	-3140.71265
49	0.48	-87.27819	1642.89746	1430.19678	-37.76146	1654.30298	1531.67419	-193.83598	1600.87976	1479.31909	-143.59967	1611.2627	1587.55493	-222.09294	1413.40833	1520.73462	-266.0596	1119.25098	1534.89233	-78.70267	1340.53748	1501.79785	-42.39628	1185.76624	1497.06775	-272.75778	1225.78528	1608.99976	-158.78416	1370.83398	1350.4812	-229.20786	1193.30188	1275.54773	-277.15341	1055.77478	1284.88562	-287.53683	945.07739	1257.51331	-260.33688	806.01166	1260.18665	-316.59811	826.09082	1251.47534	-309.11157	744.11572	1232.34802	-123.11174	1386.95081	1656.95068	-176.50578	1198.86047	1774.75903	-164.19376	1070.40894	1789.76147	-74.62453	980.50391	1799.54688	50.57285	934.70886	1752.59485	22.84089	906.83813	1794.04932	99.30306	874.12604	1787.55383	-96.59112	919.87152	1411.82263	-86.73351	913.34985	1628.99683	-279.97137	922.04034	1467.48438	-272.84235	931.11066	1609.34094	-47.17888	604.0564	1333.90198	-5.92545	479.51361	1353.08813	2.64497	291.93909	1338.41077	61.21319	74.16234	1381.00696	34.53527	33.94025	1439.54358	206.54733	81.60941	1360.50037	-209.40569	595.54999	1698.18262	-247.24904	437.12097	1683.55127	-363.66336	302.69754	1699.66199	-468.84772	119.88322	1667.95764	-530.00427	103.08765	1621.28735	-355.30441	33.06087	1666.41663	-55.5072	1687.23865	1513.2345	1973.05322	1023.91187	-3102.14844	2012.44739	1022.086	-3140.76514
50	0.49	-74.69418	1642.01514	1426.59717	-25.20008	1653.59753	1528.19116	-181.2117	1600.02124	1475.70593	-131.10674	1610.5741	1583.99939	-209.36447	1412.40881	1517.25122	-252.39789	1118.1687	1532.41235	-65.76482	1339.87915	1498.78906	-28.9635	1185.22131	1494.60217	-259.79388	1224.85217	1605.87585	-145.67189	1369.46069	1347.20178	-215.79552	1191.59741	1272.74536	-264.06674	1054.10132	1282.80908	-274.38504	943.38617	1255.89539	-247.42688	804.35712	1258.94495	-303.59253	824.47302	1250.24402	-296.3277	742.28058	1231.5083	-110.69958	1386.58923	1653.78027	-165.31204	1198.84827	1771.8175	-152.7877	1070.46777	1787.44727	-63.16469	980.57825	1797.49902	61.92211	934.55835	1750.38074	34.35984	906.88361	1792.11804	110.84732	874.05243	1785.21704	-81.82718	919.328	1410.31299	-72.76354	912.69672	1627.5155	-265.62106	921.06958	1465.54504	-259.23187	930.6452	1607.37549	-30.20885	604.39819	1335.3125	8.42606	478.24969	1353.078	13.69107	289.74799	1338.46008	68.59811	71.61203	1381.40796	39.21648	33.34437	1438.9696	214.13699	75.69131	1363.37292	-195.22113	595.09625	1697.41077	-233.33366	436.2598	1683.48254	-353.91269	305.35425	1699.76831	-464.05936	125.25274	1669.07458	-525.55188	110.83292	1622.22668	-354.60406	33.38557	1666.8905	-42.96443	1686.51318	1509.63208	1973.04468	1023.98608	-3102.0564	2012.6106	1022.15021	-3140.80127
51	0.5	-61.97698	1641.17932	1422.95496	-12.72905	1652.91809	1524.65869	-168.58315	1599.10864	1471.91589	-118.68024	1609.89905	1580.35376	-196.70647	1411.39502	1513.62183	-238.69125	1117.04395	1529.76636	-52.81871	1339.24756	1495.62146	-15.40599	1184.76489	1492.07532	-246.7282	1223.84326	1602.63782	-132.54279	1368.0863	1343.75146	-202.17719	1189.86389	1269.76135	-250.77103	1052.41626	1280.56946	-260.81757	941.59326	1254.03564	-233.86006	802.51465	1258.06323	-289.80441	822.57434	1248.88977	-282.22894	740.25629	1230.51367	-98.32162	1386.16748	1650.40576	-154.20004	1198.89429	1768.74524	-141.59644	1070.57056	1784.99353	-52.00843	980.55603	1795.3833	72.83791	934.0224	1748.2821	45.37726	906.58319	1790.20874	121.80378	873.41888	1782.99194	-67.10004	918.88928	1408.75806	-58.53046	912.17816	1625.84607	-251.30023	920.1098	1463.46887	-244.97182	929.70288	1605.11987	-13.04856	604.26941	1336.62207	22.50232	476.58292	1352.47034	24.00557	287.47638	1339.1897	73.10297	69.5723	1382.32227	40.61843	34.14115	1439.5957	219.20128	65.25746	1366.79102	-180.14761	594.31152	1696.38831	-217.98422	435.24738	1683.25146	-343.07321	308.00922	1699.42847	-458.48062	131.05556	1669.97217	-519.75555	119.34418	1622.93298	-353.88092	33.13614	1667.0116	-30.49631	1685.77795	1506.02197	1973.14172	1023.57208	-3101.91357	2012.43359	1022.08746	-3140.74854
52	0.51	-49.32145	1640.85718	1419.26294	-0.24024	1652.62439	1521.10962	-155.70851	1598.39282	1468.18909	-106.2563	1609.396	1576.60242	-184.1837	1410.63562	1509.86218	-224.88551	1115.98535	1527.01233	-39.80494	1338.65942	1492.30835	-1.90079	1184.46387	1489.4104	-233.58153	1222.87012	1599.172	-119.28556	1366.93774	1340.22644	-188.45569	1188.17297	1266.71924	-236.97923	1050.67151	1278.02759	-246.87306	939.70605	1252.05945	-219.24622	800.81897	1256.5929	-275.30609	820.55414	1247.38672	-267.35944	738.18909	1229.35071	-85.97706	1385.91541	1647.00208	-143.16566	1198.97021	1765.50098	-130.55151	1070.67285	1782.40137	-41.24934	980.34308	1793.23035	83.34818	933.00092	1746.24548	55.88372	905.91705	1788.42004	132.16058	872.3501	1781.03552	-52.78614	918.7348	1407.12244	-44.17714	911.66852	1623.94043	-237.22171	919.15027	1461.09229	-230.75238	928.73206	1602.95911	3.37522	603.73517	1336.88611	36.5536	474.86176	1351.3064	33.83214	286.56943	1340.74707	75.33393	69.04872	1382.75732	41.49347	35.32317	1440.10388	221.95207	56.23214	1369.28259	-163.85042	593.16803	1695.11829	-201.30994	433.84357	1682.78174	-331.04437	311.24207	1698.84888	-451.6431	137.48203	1670.73645	-512.63873	128.91646	1623.44678	-353.32993	33.04324	1667.08704	-18.05685	1685.27991	1502.34021	1973.25745	1023.4162	-3101.93237	2012.53931	1022.07043	-3140.64722
